<svg xmlns="http://www.w3.org/2000/svg" xmlns:xlink="http://www.w3.org/1999/xlink" width="573.39" height="411.57" viewBox="0 0 573.39 411.57"><defs><linearGradient id="a" x1="189.18" y1="215.89" x2="398.08" y2="215.89" gradientUnits="userSpaceOnUse"><stop offset="0" stop-color="#0067e9"/><stop offset="1" stop-color="#00bdc0"/></linearGradient><linearGradient id="b" x1="405.9" y1="380.63" x2="572.47" y2="380.63" xlink:href="#a"/><linearGradient id="c" x1="422.48" y1="386.56" x2="557.17" y2="386.56" xlink:href="#a"/><linearGradient id="d" x1="422.32" y1="386.56" x2="557.31" y2="386.56" xlink:href="#a"/><linearGradient id="e" x1="480.14" y1="396.91" x2="500.62" y2="396.91" xlink:href="#a"/><linearGradient id="f" x1="484.47" y1="369.02" x2="499.16" y2="369.02" xlink:href="#a"/><linearGradient id="g" x1="474.63" y1="340.23" x2="509.3" y2="340.23" xlink:href="#a"/><linearGradient id="h" x1="185.43" y1="159.6" x2="365.78" y2="159.6" xlink:href="#a"/><linearGradient id="i" x1="116.84" y1="369.95" x2="381.13" y2="369.95" xlink:href="#a"/><linearGradient id="j" x1="244.7" y1="292.63" x2="516.34" y2="292.63" xlink:href="#a"/><linearGradient id="k" x1="92.75" y1="291.67" x2="319.31" y2="291.67" xlink:href="#a"/><linearGradient id="l" x1="91.54" y1="140.63" x2="311.32" y2="140.63" xlink:href="#a"/><linearGradient id="m" x1="146.46" y1="200.13" x2="161.27" y2="200.13" xlink:href="#a"/><linearGradient id="n" x1="41.98" y1="201.55" x2="56.79" y2="201.55" xlink:href="#a"/><linearGradient id="o" x1="2.28" y1="151.79" x2="199.61" y2="151.79" xlink:href="#a"/><linearGradient id="p" x1="2.28" y1="151.63" x2="182.6" y2="151.63" xlink:href="#a"/><linearGradient id="q" x1="89.95" y1="311.41" x2="276.96" y2="311.41" xlink:href="#a"/><linearGradient id="r" x1="-0.92" y1="309.52" x2="236.2" y2="309.52" xlink:href="#a"/></defs><path d="M395.38,209.38a101.95,101.95,0,1,0-7.63,45.69,104.4,104.4,0,0,0,4.74-14.35A102.09,102.09,0,0,0,395.38,209.38ZM224.27,163.63c36.94-49,112.14-45.32,143.86,7.67a86.71,86.71,0,0,1,11,29.4,342.42,342.42,0,0,0-155.49-36.26Zm-17.16,44.42a300.13,300.13,0,0,1,53.82,1.49c-3.24,27.4-8.79,46.91-12,74.3C218.47,266.94,204.2,241.32,207.11,208.05ZM363,268.15A86.93,86.93,0,0,1,305,302c9.58-24.79,17.44-42.18,27-67,14.73,3.14,28.82,6.42,42.66,12.1A86.43,86.43,0,0,1,363,268.15Z" fill="#0f181f" stroke-linecap="round" stroke-linejoin="round" stroke-width="5" stroke="url(#a)"/><polygon points="569.97 409.93 408.39 406.91 426.11 351.34 559.07 353.68 569.97 409.93" fill="#0f181f" stroke-linecap="round" stroke-linejoin="round" stroke-width="5" stroke="url(#b)"/><path d="M433.6,380.29,425,409.73H554.67l-6.13-27.56a23.51,23.51,0,0,0-22.82-18.41l-69.44-.37A23.5,23.5,0,0,0,433.6,380.29Z" fill="#0f181f" stroke-linecap="round" stroke-linejoin="round" stroke-width="5" stroke="url(#c)"/><path d="M554.81,409.85h-130l8.67-29.59a23.61,23.61,0,0,1,22.66-17h.13l69.44.37a23.61,23.61,0,0,1,22.93,18.5Zm-129.67-.23H554.52l-6.09-27.43a23.28,23.28,0,0,0-22.71-18.31l-69.57-.37a23.51,23.51,0,0,0-22.44,16.81Z" fill="#0f181f" stroke-linecap="round" stroke-linejoin="round" stroke-width="5" stroke="url(#d)"/><polygon points="498.12 413.45 482.64 413.33 486.92 380.36 496.61 380.36 498.12 413.45" fill="#0f181f" stroke-linecap="round" stroke-linejoin="round" stroke-width="5" stroke="url(#e)"/><path d="M491.82,387h0a4.85,4.85,0,0,1-4.85-4.85v-31.1h9.69v31.1A4.85,4.85,0,0,1,491.82,387Z" fill="#0f181f" stroke-linecap="round" stroke-linejoin="round" stroke-width="5" stroke="url(#f)"/><path d="M501,357.71h-18.1A5,5,0,0,1,478,353l-.82-16.59c-.38-7.45,6.37-13.67,14.82-13.67h0c8.45,0,15.19,6.22,14.82,13.67L506,353A4.94,4.94,0,0,1,501,357.71Z" fill="#0f181f" stroke-linecap="round" stroke-linejoin="round" stroke-width="5" stroke="url(#g)"/><path d="M187.93,178.52s87.21-36.62,95.89-43,18.5-19.44,20.38-20.57,21.73-8.1,27.11-7.82,5.66,3.12,5.66,3.12,7.08,0,8.78,2.26a18.82,18.82,0,0,1,2.26,3.68s4.81,0,6.79,3.4,2,5.38,2,5.38,5.09.28,6.23,2.55-1.7,7.92-1.7,7.92S344.74,145,346,146.16l5.93,5.33s-5.65,3.45-9.9,3.45-14.55-3.22-17.66-3.22-101.74,60.4-101.74,60.4Z" fill="#0f181f" stroke-linecap="round" stroke-linejoin="round" stroke-width="5" stroke="url(#h)"/><path d="M197.47,329.93s139.27-3.4,152.85,11.32,28.31,67.94,28.31,67.94l-259.29,1.13Z" fill="#0f181f" stroke-linecap="round" stroke-linejoin="round" stroke-width="5" stroke="url(#i)"/><path d="M247.2,260.82s86,99.83,104.16,97.95c8.27-.87,100.45-22.07,110.26-22.45s15.86-4.53,21.14-7.18,9.82-3.77,13.59-2.26,12.84,8.68,15.48,9.06-4.15-7.17-7.93-11.7,8.31,7.17,9.82,4.9-11.08-16.49-16.3-18.56c-12.82-5.09-47.49,8.57-47.49,8.57L357,311.76,285,226.46Z" fill="#0f181f" stroke-linecap="round" stroke-linejoin="round" stroke-width="5" stroke="url(#j)"/><path d="M251.73,269.11l21.48,29.24c11.7,0,43.6-42.47,43.6-42.47s-49.62-62.55-83.43-82-63.7-15.6-63.7-15.6-31.21,7.8-44.21,11.7c-6.5,1.95-32.35,5.53-30.08,34.41,1.43,18.23,16.39,40.32,17,45.52.81,6.44-.28,50,7.81,92.32a255.52,255.52,0,0,1,4,42.64c-1.87,3-2.08,6.33-.06,10,14.63,26.85,137.49,53.28,154.14-1.37h0c-17.9-26.36-22.44-59.12-21.28-91C257.28,295.33,251.73,269.11,251.73,269.11Z" fill="#0f181f" stroke-linecap="round" stroke-linejoin="round" stroke-width="5" stroke="url(#k)"/><path d="M214.1,45.09c8.23,15.32,14.33,21.14,30.19,28.34,10.65,4.83,18.39,23,14.76,36.72-9.19,34.68,15.34,25.52,34.84,44.17,47,44.92-30.9,87.33-42,94.48s-30.14,12.05-37.54,13.13c-22.31,3.22-54.08-10.59-72.49-36.25s-24.29-34.8-27.18-51.53-21.79-14.67-20.54-48C95.45,90.08,103.81,52,120,37,146.74,12,195.84,11.13,214.1,45.09Z" fill="#0f181f" stroke-linecap="round" stroke-linejoin="round" stroke-width="5" stroke="url(#l)"/><rect x="148.96" y="171.44" width="9.82" height="57.38" fill="#0f181f" stroke-linecap="round" stroke-linejoin="round" stroke-width="5" stroke="url(#m)"/><rect x="44.48" y="172.86" width="9.82" height="57.38" fill="#0f181f" stroke-linecap="round" stroke-linejoin="round" stroke-width="5" stroke="url(#n)"/><path d="M160.43,190.42q-30.39-1.69-60.86-1.66c-19.38,0-38.84-2.15-58.2-1.07-17.38,1-32.78-7.81-34.54-23.56Q5.89,155,4.92,145.85C3.17,130.11,17.21,116,36.31,114.9a1161.19,1161.19,0,0,1,129.26,0c19.11,1,33.15,15.21,31.39,30.95q-.94,9.14-1.91,18.28C193.3,179.88,177.82,191.38,160.43,190.42Z" fill="#0f181f" stroke-linecap="round" stroke-linejoin="round" stroke-width="5" stroke="url(#o)"/><path d="M150.38,114.15q-57-2.43-114.07.75c-19.1,1-33.14,15.21-31.39,30.95q1,9.14,1.91,18.28c1.53,13.68,13.41,24.15,27.9,26q27.33-1.42,54.69-1.34,31.55-.35,63.07,1.17c13.39-2.43,24.18-12.76,25.61-26.11q.93-9.24,1.85-18.49C181.63,129.75,168.47,115.64,150.38,114.15Z" fill="#0f181f" stroke-linecap="round" stroke-linejoin="round" stroke-width="5" stroke="url(#p)"/><path d="M274.46,412.58l-182-2.65.79-199.7,43.35.09,33.33,2.11c33.35,1.12,62.24,25.57,71.53,60.54Z" fill="#0f181f" stroke-linecap="round" stroke-linejoin="round" stroke-width="5" stroke="url(#q)"/><path d="M233.7,409.19,205.88,271.44c-9.3-35.37-38.19-60.09-71.54-61.22L1.58,209.85V409.19Z" fill="#0f181f" stroke-linecap="round" stroke-linejoin="round" stroke-width="5" stroke="url(#r)"/></svg>