<svg xmlns="http://www.w3.org/2000/svg" xmlns:xlink="http://www.w3.org/1999/xlink" width="117.92" height="411.57" viewBox="0 0 117.92 411.57"><defs><linearGradient id="a" x1="0.83" y1="376.3" x2="0.83" y2="49.25" gradientUnits="userSpaceOnUse"><stop offset="0" stop-color="#03063c"/><stop offset="1" stop-color="#161762"/></linearGradient><linearGradient id="b" x1="51.32" y1="94.98" x2="51.32" y2="57.24" xlink:href="#a"/><linearGradient id="c" x1="0.83" y1="59.39" x2="0.83" y2="52.65" xlink:href="#a"/><linearGradient id="d" x1="0.83" y1="63.63" x2="0.83" y2="57.24" xlink:href="#a"/><linearGradient id="e" x1="56.7" y1="236.11" x2="56.7" y2="144.1" xlink:href="#a"/><linearGradient id="f" x1="55.62" y1="288.41" x2="55.62" y2="235.51" xlink:href="#a"/><linearGradient id="g" x1="55.62" y1="332.69" x2="55.62" y2="282.84" xlink:href="#a"/><linearGradient id="h" x1="0.83" y1="369.69" x2="0.83" y2="347.68" xlink:href="#a"/><linearGradient id="i" x1="0.83" y1="374.34" x2="0.83" y2="349.66" xlink:href="#a"/><linearGradient id="j" x1="0.83" y1="129.09" x2="0.83" y2="61.31" xlink:href="#a"/><linearGradient id="k" x1="0.82" y1="189.45" x2="0.82" y2="135.46" xlink:href="#a"/><linearGradient id="l" x1="0.83" y1="331.66" x2="0.83" y2="184.92" xlink:href="#a"/><linearGradient id="m" x1="0.83" y1="365.54" x2="0.83" y2="328.48" xlink:href="#a"/><linearGradient id="n" x1="73.72" y1="183.73" x2="73.72" y2="152.09" xlink:href="#a"/></defs><g opacity="0.3"><rect x="-30.62" y="375.27" width="46.9" height="25.96" fill="none" stroke="#c7f2ff" stroke-miterlimit="10"/><rect x="16.28" y="375.27" width="46.9" height="25.96" fill="none" stroke="#c7f2ff" stroke-miterlimit="10"/><rect x="63.18" y="375.27" width="46.9" height="25.96" fill="none" stroke="#c7f2ff" stroke-miterlimit="10"/><rect x="-30.62" y="349.31" width="46.9" height="25.96" fill="none" stroke="#c7f2ff" stroke-miterlimit="10"/><rect x="16.28" y="349.31" width="46.9" height="25.96" fill="none" stroke="#c7f2ff" stroke-miterlimit="10"/><rect x="63.18" y="349.31" width="46.9" height="25.96" fill="none" stroke="#c7f2ff" stroke-miterlimit="10"/><rect x="-30.62" y="323.34" width="46.9" height="25.96" fill="none" stroke="#c7f2ff" stroke-miterlimit="10"/><rect x="16.28" y="323.34" width="46.9" height="25.96" fill="none" stroke="#c7f2ff" stroke-miterlimit="10"/><rect x="63.18" y="323.34" width="46.9" height="25.96" fill="none" stroke="#c7f2ff" stroke-miterlimit="10"/><rect x="-30.62" y="297.38" width="46.9" height="25.96" fill="none" stroke="#c7f2ff" stroke-miterlimit="10"/><rect x="16.28" y="297.38" width="46.9" height="25.96" fill="none" stroke="#c7f2ff" stroke-miterlimit="10"/><rect x="63.18" y="297.38" width="46.9" height="25.96" fill="none" stroke="#c7f2ff" stroke-miterlimit="10"/><rect x="-30.62" y="271.42" width="46.9" height="25.96" fill="none" stroke="#c7f2ff" stroke-miterlimit="10"/><rect x="16.28" y="271.42" width="46.9" height="25.96" fill="none" stroke="#c7f2ff" stroke-miterlimit="10"/><rect x="63.18" y="271.42" width="46.9" height="25.96" fill="none" stroke="#c7f2ff" stroke-miterlimit="10"/><rect x="-30.62" y="245.46" width="46.9" height="25.96" fill="none" stroke="#c7f2ff" stroke-miterlimit="10"/><rect x="16.28" y="245.46" width="46.9" height="25.96" fill="none" stroke="#c7f2ff" stroke-miterlimit="10"/><rect x="63.18" y="245.46" width="46.9" height="25.96" fill="none" stroke="#c7f2ff" stroke-miterlimit="10"/><rect x="-30.62" y="219.49" width="46.9" height="25.96" fill="none" stroke="#c7f2ff" stroke-miterlimit="10"/><rect x="16.28" y="219.49" width="46.9" height="25.96" fill="none" stroke="#c7f2ff" stroke-miterlimit="10"/><rect x="63.18" y="219.49" width="46.9" height="25.96" fill="none" stroke="#c7f2ff" stroke-miterlimit="10"/><rect x="-30.62" y="193.53" width="46.9" height="25.96" fill="none" stroke="#c7f2ff" stroke-miterlimit="10"/><rect x="16.28" y="193.53" width="46.9" height="25.96" fill="none" stroke="#c7f2ff" stroke-miterlimit="10"/><rect x="63.18" y="193.53" width="46.9" height="25.96" fill="none" stroke="#c7f2ff" stroke-miterlimit="10"/><rect x="-30.62" y="167.57" width="46.9" height="25.96" fill="none" stroke="#c7f2ff" stroke-miterlimit="10"/><rect x="16.28" y="167.57" width="46.9" height="25.96" fill="none" stroke="#c7f2ff" stroke-miterlimit="10"/><rect x="63.18" y="167.57" width="46.9" height="25.96" fill="none" stroke="#c7f2ff" stroke-miterlimit="10"/><rect x="-30.62" y="141.61" width="46.9" height="25.96" fill="none" stroke="#c7f2ff" stroke-miterlimit="10"/><rect x="16.28" y="141.61" width="46.9" height="25.96" fill="none" stroke="#c7f2ff" stroke-miterlimit="10"/><rect x="63.18" y="141.61" width="46.9" height="25.96" fill="none" stroke="#c7f2ff" stroke-miterlimit="10"/><rect x="-30.62" y="115.64" width="46.9" height="25.96" fill="none" stroke="#c7f2ff" stroke-miterlimit="10"/><rect x="16.28" y="115.64" width="46.9" height="25.96" fill="none" stroke="#c7f2ff" stroke-miterlimit="10"/><rect x="63.18" y="115.64" width="46.9" height="25.96" fill="none" stroke="#c7f2ff" stroke-miterlimit="10"/><rect x="-30.62" y="89.68" width="46.9" height="25.96" fill="none" stroke="#c7f2ff" stroke-miterlimit="10"/><rect x="16.28" y="89.68" width="46.9" height="25.96" fill="none" stroke="#c7f2ff" stroke-miterlimit="10"/><rect x="63.18" y="89.68" width="46.9" height="25.96" fill="none" stroke="#c7f2ff" stroke-miterlimit="10"/><rect x="-30.62" y="63.72" width="46.9" height="25.96" fill="none" stroke="#c7f2ff" stroke-miterlimit="10"/><rect x="16.28" y="63.72" width="46.9" height="25.96" fill="none" stroke="#c7f2ff" stroke-miterlimit="10"/><rect x="63.18" y="63.72" width="46.9" height="25.96" fill="none" stroke="#c7f2ff" stroke-miterlimit="10"/><rect x="-30.62" y="37.76" width="46.9" height="25.96" fill="none" stroke="#c7f2ff" stroke-miterlimit="10"/><rect x="16.28" y="37.76" width="46.9" height="25.96" fill="none" stroke="#c7f2ff" stroke-miterlimit="10"/><rect x="63.18" y="37.76" width="46.9" height="25.96" fill="none" stroke="#c7f2ff" stroke-miterlimit="10"/><rect x="-30.62" y="11.79" width="46.9" height="25.96" fill="none" stroke="#c7f2ff" stroke-miterlimit="10"/><rect x="16.28" y="11.79" width="46.9" height="25.96" fill="none" stroke="#c7f2ff" stroke-miterlimit="10"/><rect x="63.18" y="11.79" width="46.9" height="25.96" fill="none" stroke="#c7f2ff" stroke-miterlimit="10"/></g><polygon points="49.31 57.33 2.63 49.84 0.83 49.55 -0.98 49.84 -47.66 57.33 -70 85.89 -64.83 351.84 -39.88 370.21 -0.98 375.75 0.83 376 2.63 375.75 41.53 370.21 66.48 351.84 71.66 85.89 49.31 57.33" fill="#0f181f"/><polygon points="35.34 57.54 47.76 61.47 67.31 86.09 64.41 94.68 35.34 57.54" fill="#0f181f"/><polygon points="34.1 59.09 33.06 57.02 0.87 52.96 0.83 52.95 0.78 52.95 -31.41 57.02 -32.45 59.09 0.83 55.68 34.1 59.09" fill="#0f181f"/><polygon points="36.48 63.33 35.34 61.26 0.87 57.54 0.83 57.54 0.78 57.54 -33.69 61.26 -34.83 63.33 0.83 59.72 36.48 63.33" fill="#0f181f"/><polygon points="64.41 144.4 53.65 189.15 49 235.81 63.59 230.53 64.41 144.4" fill="#0f181f"/><polygon points="63.59 235.81 49 241.71 46.82 279.73 64.41 288.11 63.59 235.81" fill="#0f181f"/><polygon points="46.82 283.14 64.41 292.04 64.41 321.22 55.62 332.39 46.82 321.63 46.82 283.14" fill="#0f181f"/><polygon points="60.91 349.18 58.81 347.98 39.67 361.74 0.83 366.8 -38.02 361.74 -57.16 347.98 -59.26 349.18 -38.64 363.91 0.83 369.39 40.29 363.91 60.91 349.18" fill="#0f181f"/><polygon points="64.22 350.83 62.43 349.95 40.76 365.75 0.83 371.72 -39.1 365.75 -60.78 349.95 -62.56 350.83 -39.47 367.73 0.78 374.04 0.83 374.04 0.87 374.04 41.12 367.73 64.22 350.83" fill="#0f181f"/><polygon points="63.59 96.86 63.59 138.03 61.26 144.4 53.65 137.56 0.82 132.6 -52 137.56 -59.6 144.4 -61.93 138.03 -61.93 96.86 -36.58 65.51 0.79 61.67 0.82 61.68 0.87 61.68 38.24 65.51 63.59 96.86" fill="#0f181f"/><path d="M63.59,96.86v13.4c-57-65.09-111.12-15.52-125.52.11V96.86l25.35-31.35L.78,61.67H.87l37.37,3.83Z" fill="#0f181f"/><polygon points="60.27 147.14 50.76 189.15 0.82 182.33 -49.1 189.15 -58.62 147.14 -50.97 141.35 0.79 135.76 0.82 135.76 0.87 135.77 52.62 141.35 60.27 147.14" fill="#0f181f"/><path d="M60.27,147.14l-9.51,42c-18-44.24-109.38-42-109.38-42l7.65-5.79L.78,135.76H.87l51.75,5.58Z" fill="#0f181f"/><polygon points="45.36 241.91 43.08 281.91 43.86 324.43 38.42 331.36 -36.78 331.36 -42.21 324.43 -41.44 281.91 -43.71 241.91 -48.57 191.73 0.79 185.22 0.87 185.22 50.23 191.73 45.36 241.91" fill="#0f181f"/><path d="M45.36,241.91l-2.28,40,.78,42.52c-77.55-31.82-92.43-132.7-92.43-132.7L.78,185.22H.87l49.36,6.51Z" fill="#0f181f"/><path d="M56.6,347,38.44,360.12.82,365.24l-37.62-5.12L-54.95,347l12.11-18.22a0,0,0,0,0,0,0l5.1,5.71h77.1l5.13-5.73Z" fill="#0f181f"/><path d="M56.6,347c-85.71,24.66-99.12-17.19-99.43-18.2l5.1,5.71h77.1l5.13-5.73Z" fill="#0f181f"/><polygon points="64.41 152.39 83.04 170.81 83.04 183.43 67.1 174.94 67.52 161.29 64.41 158.6 64.41 152.39" fill="#0f181f"/><path d="M64.41,152.38v6.22h0c.51.24,16.52,8.15,18.62,24.82V170.8Z" fill="#0f181f"/><g opacity="0.3"><path d="M-39.92,370.51a.35.35,0,0,1-.14-.06l-25-18.37a.29.29,0,0,1-.12-.23l-5.17-266a.33.33,0,0,1,.06-.19l22.35-28.55A.29.29,0,0,1-47.7,57L.78,49.25l1.9.29L49.36,57a.27.27,0,0,1,.18.11L71.89,85.7a.27.27,0,0,1,.06.19l-5.17,266a.27.27,0,0,1-.12.23L41.71,370.45a.35.35,0,0,1-.14.06L.83,376.3Z" fill="url(#a)"/><path d="M.83,49.55l1.8.29,46.68,7.49L71.66,85.89l-5.18,266-25,18.37-38.9,5.54L.83,376-1,375.75l-38.9-5.54-24.95-18.37L-70,85.89l22.34-28.56L-1,49.84l1.81-.29m0-.6H.73l-1.8.29-46.68,7.49a.6.6,0,0,0-.38.22L-70.48,85.52a.64.64,0,0,0-.12.38l5.17,266a.59.59,0,0,0,.24.47l25,18.36a.54.54,0,0,0,.27.11l38.9,5.54,1.8.26H.91l1.8-.26,38.91-5.54a.57.57,0,0,0,.27-.11l25-18.36a.59.59,0,0,0,.24-.47l5.17-266a.58.58,0,0,0-.12-.38L49.78,57a.57.57,0,0,0-.38-.22L2.72,49.25.92,49Z" fill="#00f0fc"/><path d="M64.41,95a.3.3,0,0,1-.23-.11L35.1,57.72a.3.3,0,0,1,0-.35.31.31,0,0,1,.25-.13h.09l12.42,3.93a.45.45,0,0,1,.14.1L67.54,85.91a.26.26,0,0,1,0,.28L64.7,94.78a.33.33,0,0,1-.24.2Z" fill="url(#b)"/><path d="M35.34,57.54l12.42,3.93L67.31,86.09l-2.9,8.59L35.34,57.54m0-.6a.58.58,0,0,0-.49.26.6.6,0,0,0,0,.71L63.94,95.05a.6.6,0,0,0,.47.23h.1a.6.6,0,0,0,.47-.4l2.9-8.58a.64.64,0,0,0-.1-.57L48.22,61.1a.56.56,0,0,0-.28-.2L35.52,57l-.18,0Z" fill="#00f0fc"/><path d="M.8,56l-33.25,3.41a.29.29,0,0,1-.24-.13.3.3,0,0,1,0-.3l1-2.07a.33.33,0,0,1,.23-.17L.77,52.65H.86L33.1,56.72a.31.31,0,0,1,.23.17l1,2.07a.3.3,0,0,1,0,.3.28.28,0,0,1-.24.13Z" fill="url(#c)"/><path d="M.78,53H.87L33.06,57l1,2.07L.83,55.68l-33.28,3.41,1-2.07L.78,53m0-.6h0l-32.2,4.08a.59.59,0,0,0-.46.32l-1,2.07a.61.61,0,0,0,0,.61.61.61,0,0,0,.49.26h.06L.83,56.28,34,59.68h.06a.6.6,0,0,0,.53-.87l-1-2.07a.58.58,0,0,0-.46-.32L.94,52.36Z" fill="#00f0fc"/><path d="M.8,60l-35.63,3.62a.28.28,0,0,1-.24-.13.29.29,0,0,1,0-.31l1.14-2.07a.32.32,0,0,1,.23-.16L.77,57.24H.86L35.37,61a.32.32,0,0,1,.23.16l1.14,2.07a.29.29,0,0,1-.26.44Z" fill="url(#d)"/><path d="M.87,57.54l34.47,3.72,1.14,2.07L.83,59.71l-35.66,3.62,1.14-2.07L.78,57.54H.87m0-.6H.72l-34.47,3.73a.58.58,0,0,0-.46.3L-35.35,63a.58.58,0,0,0,0,.62.58.58,0,0,0,.49.27h.06L.83,60.32l35.59,3.61h.06a.61.61,0,0,0,.5-.27A.6.6,0,0,0,37,63L35.86,61a.58.58,0,0,0-.46-.3L.93,56.94Z" fill="#00f0fc"/><path d="M49,236.11a.28.28,0,0,1-.19-.07.29.29,0,0,1-.11-.26l4.66-46.66,10.76-44.79a.31.31,0,0,1,.29-.23h0a.3.3,0,0,1,.26.3l-.83,86.13a.3.3,0,0,1-.19.28L49.1,236.09Z" fill="url(#e)"/><path d="M64.41,144.4h0m0,0-.82,86.13L49,235.81l4.65-46.66L64.41,144.4m0-.6h-.1a.56.56,0,0,0-.28.13h0a.54.54,0,0,0-.14.16.49.49,0,0,0-.06.17L53.07,189s0,.05,0,.08L48.4,235.75a.61.61,0,0,0,.23.53.64.64,0,0,0,.37.13.71.71,0,0,0,.2,0l14.59-5.28a.58.58,0,0,0,.39-.55L65,144.46v-.06a.59.59,0,0,0-.59-.6Zm0,1.19h0Z" fill="#00f0fc"/><path d="M64.41,288.41a.31.31,0,0,1-.13,0L46.7,280a.3.3,0,0,1-.17-.29l2.17-38a.28.28,0,0,1,.18-.26l14.59-5.9.12,0a.33.33,0,0,1,.16.05.29.29,0,0,1,.13.24l.83,52.3a.29.29,0,0,1-.14.26A.28.28,0,0,1,64.41,288.41Z" fill="url(#f)"/><path d="M63.59,235.81l.82,52.3-17.59-8.38,2.18-38,14.59-5.9m0-.6a.59.59,0,0,0-.23,0l-14.59,5.9a.6.6,0,0,0-.37.52l-2.17,38a.59.59,0,0,0,.34.58l17.59,8.38a.54.54,0,0,0,.25.06.56.56,0,0,0,.33-.1.6.6,0,0,0,.27-.51l-.83-52.3a.59.59,0,0,0-.26-.49.58.58,0,0,0-.33-.1Z" fill="#00f0fc"/><path d="M55.62,332.69a.28.28,0,0,1-.23-.11l-8.8-10.76a.31.31,0,0,1-.06-.19V283.14a.29.29,0,0,1,.14-.25.3.3,0,0,1,.15-.05.23.23,0,0,1,.14,0l17.59,8.89a.32.32,0,0,1,.16.27v29.18a.28.28,0,0,1-.06.18l-8.8,11.18a.28.28,0,0,1-.23.11Z" fill="url(#g)"/><path d="M46.82,283.14,64.41,292v29.18l-8.79,11.17-8.8-10.76V283.14m0-.6a.59.59,0,0,0-.31.09.6.6,0,0,0-.28.51v38.49a.58.58,0,0,0,.13.38l8.8,10.76a.58.58,0,0,0,.46.22h0a.57.57,0,0,0,.47-.23l8.79-11.17a.58.58,0,0,0,.13-.37V292a.6.6,0,0,0-.33-.53l-17.59-8.9a.6.6,0,0,0-.27-.07Z" fill="#00f0fc"/><path d="M-38.68,364.2a.21.21,0,0,1-.13-.05l-20.62-14.72a.3.3,0,0,1-.12-.26.29.29,0,0,1,.15-.25l2.09-1.2a.28.28,0,0,1,.15,0,.31.31,0,0,1,.18.05l19.08,13.72L.87,366.5l38.69-5.05,19.08-13.72a.26.26,0,0,1,.17-.05.28.28,0,0,1,.15,0l2.1,1.2a.35.35,0,0,1,.15.25.33.33,0,0,1-.13.26L40.46,364.15a.21.21,0,0,1-.13.05L.83,369.69Z" fill="url(#h)"/><path d="M58.81,348l2.1,1.21L40.29,363.91.83,369.39l-39.47-5.48-20.62-14.73,2.1-1.21L-38,361.74.83,366.8l38.84-5.06L58.81,348m-116-.59a.56.56,0,0,0-.3.08l-2.09,1.2a.61.61,0,0,0-.3.49.59.59,0,0,0,.25.52L-39,364.4a.63.63,0,0,0,.27.1L.74,370H.91l39.46-5.48a.63.63,0,0,0,.27-.1l20.61-14.73a.59.59,0,0,0,.25-.52.62.62,0,0,0-.29-.49l-2.1-1.2a.54.54,0,0,0-.3-.08.56.56,0,0,0-.35.11l-19,13.67-38.61,5-38.62-5-19-13.67a.56.56,0,0,0-.35-.11Z" fill="#00f0fc"/><path d="M-39.51,368a.29.29,0,0,1-.13,0l-23.1-16.89a.29.29,0,0,1-.12-.27.3.3,0,0,1,.16-.24l1.79-.88a.31.31,0,0,1,.13,0,.41.41,0,0,1,.18,0L-39,365.46l39.86,6,39.77-6,21.62-15.75a.34.34,0,0,1,.17,0,.28.28,0,0,1,.13,0l1.79.88a.3.3,0,0,1,.16.24.29.29,0,0,1-.12.27L41.29,368a.25.25,0,0,1-.13,0L.92,374.33H.81Z" fill="url(#i)"/><path d="M62.43,350l1.79.88-23.1,16.89L.87,374H.78l-40.25-6.31-23.09-16.89,1.78-.88,21.68,15.79,39.93,6,39.93-6L62.43,350m0-.6a.63.63,0,0,0-.35.11L40.52,365.18.83,371.11l-39.7-5.93-21.56-15.71a.63.63,0,0,0-.35-.11.58.58,0,0,0-.26.06l-1.79.88a.6.6,0,0,0-.33.48.6.6,0,0,0,.24.54l23.1,16.89a.85.85,0,0,0,.26.11L.69,374.63H.92l40.29-6.31a.85.85,0,0,0,.26-.11l23.1-16.89a.6.6,0,0,0,.24-.54.6.6,0,0,0-.33-.48l-1.78-.88a.66.66,0,0,0-.27-.06Z" fill="#00f0fc"/><path d="M61.26,144.69a.31.31,0,0,1-.2-.07l-7.53-6.77L.8,132.9l-52.68,4.95-7.52,6.77a.31.31,0,0,1-.2.07h-.08a.31.31,0,0,1-.2-.19l-2.33-6.37a.18.18,0,0,1,0-.1V96.86a.31.31,0,0,1,.06-.19l25.36-31.35a.31.31,0,0,1,.2-.11L.78,61.38l37.49,3.83a.31.31,0,0,1,.2.11L63.82,96.67a.26.26,0,0,1,.07.19V138a.36.36,0,0,1,0,.1l-2.33,6.37a.31.31,0,0,1-.21.19Z" fill="url(#j)"/><path d="M.78,61.67H.87l37.37,3.83L63.59,96.86V138l-2.33,6.37-7.61-6.84-52.83-5-52.82,5-7.6,6.84L-61.93,138V96.86l25.35-31.35L.78,61.67m0-.59h0l-37.36,3.83a.64.64,0,0,0-.41.22L-62.4,96.48a.65.65,0,0,0-.13.38V138a.45.45,0,0,0,0,.2l2.32,6.37a.61.61,0,0,0,.42.38h.15a.62.62,0,0,0,.4-.15l7.45-6.7L.82,133.2l52.58,4.94,7.46,6.7a.59.59,0,0,0,.4.15h.14a.6.6,0,0,0,.42-.38l2.33-6.37a.45.45,0,0,0,0-.2V96.86a.65.65,0,0,0-.13-.38L38.7,65.13a.62.62,0,0,0-.4-.22L.93,61.09H.76Z" fill="#00f0fc"/><path d="M63.59,96.86v13.4c-57-65.09-111.12-15.52-125.52.11V96.86l25.35-31.35L.78,61.67H.87l37.37,3.83Z" fill="#151760"/><path d="M.78,182.62l-49.88,6.83a.3.3,0,0,1-.29-.23l-9.53-42a.32.32,0,0,1,.12-.31l7.65-5.79a.47.47,0,0,1,.15-.06L.75,135.46H.88l51.78,5.58a.35.35,0,0,1,.14.06l7.65,5.79a.29.29,0,0,1,.11.31l-9.51,42a.3.3,0,0,1-.29.23Z" fill="url(#k)"/><path d="M.82,135.76H.87l51.75,5.58,7.65,5.79-9.51,42L.82,182.33l-49.92,6.82-9.52-42,7.65-5.79L.78,135.76h0m0-.6H.72L-51,140.75a.79.79,0,0,0-.3.12l-7.65,5.8a.59.59,0,0,0-.23.6l9.52,42a.61.61,0,0,0,.59.47H-49L.82,182.93l49.86,6.81h.08a.59.59,0,0,0,.58-.47l9.51-42a.57.57,0,0,0-.22-.6L53,140.87a.74.74,0,0,0-.29-.12L1,135.18l-.14,0Z" fill="#00f0fc"/><path d="M60.27,147.14l-9.51,42c-18-44.24-109.38-42-109.38-42l7.65-5.79L.78,135.76H.87l51.75,5.58Z" fill="#151760"/><path d="M-36.78,331.66a.29.29,0,0,1-.23-.12l-5.44-6.93a.31.31,0,0,1-.06-.19l.78-42.52-2.28-40-4.86-50.17a.32.32,0,0,1,.26-.33L.75,184.92H.87l49.39,6.51a.31.31,0,0,1,.26.33l-4.86,50.18-2.28,40,.78,42.5a.26.26,0,0,1-.07.19l-5.43,6.93a.31.31,0,0,1-.24.12Z" fill="url(#l)"/><path d="M.87,185.22l49.36,6.51-4.87,50.18-2.28,40,.78,42.52-5.44,6.93h-75.2l-5.43-6.93.77-42.52-2.27-40-4.86-50.18L.78,185.22H.87m0-.6H.71l-49.36,6.51a.58.58,0,0,0-.51.65L-44.3,242l2.27,40-.78,42.48a.6.6,0,0,0,.13.38l5.43,6.93a.62.62,0,0,0,.47.22h75.2a.59.59,0,0,0,.47-.22l5.44-6.93a.67.67,0,0,0,.13-.38l-.78-42.52,2.28-40,4.86-50.15a.6.6,0,0,0-.52-.65L1,184.63Z" fill="#00f0fc"/><path d="M45.36,241.91l-2.28,40,.78,42.52c-77.55-31.82-92.43-132.7-92.43-132.7L.78,185.22H.87l49.36,6.51Z" fill="#151760"/><path d="M-36.84,360.42a.35.35,0,0,1-.13-.05l-18.15-13.13a.29.29,0,0,1-.07-.4l12.1-18.23a.31.31,0,0,1,.25-.13h.08a.28.28,0,0,1,.18.14l5,5.58H39.24l5-5.63a.26.26,0,0,1,.22-.1h0a.28.28,0,0,1,.23.13l12.1,18.23a.29.29,0,0,1-.07.4L38.62,360.37a.34.34,0,0,1-.14.05L.82,365.54Z" fill="url(#m)"/><path d="M44.5,328.78,56.6,347,38.44,360.12.82,365.24l-37.62-5.12L-54.95,347l12.11-18.22a0,0,0,0,0,0,0l5.1,5.71h77.1l5.13-5.73m-87.34-.6a.59.59,0,0,0-.5.26l-12.1,18.23a.6.6,0,0,0,.14.82l18.15,13.12a.7.7,0,0,0,.27.11L.74,365.83H.9l37.62-5.11a.64.64,0,0,0,.27-.11L57,347.49a.6.6,0,0,0,.15-.82L45,328.44a.61.61,0,0,0-.46-.26h0a.61.61,0,0,0-.45.2l-4.94,5.53H-37.46l-4.89-5.47a.56.56,0,0,0-.32-.24l-.17,0Z" fill="#00f0fc"/><path d="M56.6,347c-85.71,24.66-99.12-17.19-99.43-18.2l5.1,5.71h77.1l5.13-5.73Z" fill="#151760"/><path d="M83,183.73a.33.33,0,0,1-.14,0L67,175.21a.32.32,0,0,1-.16-.28l.41-13.51-3-2.6a.28.28,0,0,1-.11-.22v-6.21a.32.32,0,0,1,.19-.28l.11,0a.27.27,0,0,1,.21.09l18.63,18.41a.36.36,0,0,1,.09.22v12.62a.33.33,0,0,1-.3.3Z" fill="url(#n)"/><path d="M64.41,152.39,83,170.8v12.63L67.1,174.94l.42-13.65-3.11-2.69v-6.21m0-.6a.64.64,0,0,0-.23.05.6.6,0,0,0-.37.55v6.21a.62.62,0,0,0,.21.45l2.89,2.5-.4,13.38a.59.59,0,0,0,.31.54L82.76,184A.64.64,0,0,0,83,184a.55.55,0,0,0,.3-.09.6.6,0,0,0,.29-.51V170.8a.61.61,0,0,0-.17-.42L64.83,152a.59.59,0,0,0-.42-.17Z" fill="#00f0fc"/><path d="M64.41,152.38v6.22h0c.51.24,16.52,8.15,18.62,24.82V170.8Z" fill="#151760"/></g></svg>