<?xml version="1.0" encoding="utf-8"?>
<!-- Generator: Adobe Illustrator 25.0.1, SVG Export Plug-In . SVG Version: 6.00 Build 0)  -->
<svg version="1.1" id="Layer_1" xmlns="http://www.w3.org/2000/svg" xmlns:xlink="http://www.w3.org/1999/xlink" x="0px" y="0px"
	 viewBox="0 0 300 300" style="enable-background:new 0 0 300 300;" xml:space="preserve">
<style type="text/css">
	.st0{clip-path:url(#XMLID_3_);}
	.st1{clip-path:url(#SVGID_2_);}
	.st2{fill:#FFFFFF;}
	.st3{fill:none;stroke:#000000;stroke-width:0.9132;stroke-linecap:round;stroke-linejoin:round;stroke-miterlimit:10;}
	.st4{fill:#F2994A;}
	.st5{fill:#E7B088;}
	.st6{fill:#DDA783;}
	.st7{fill:#F2C4A5;}
	.st8{fill:#07979E;}
	.st9{fill:#22DDDD;}
	.st10{fill:#17C5CC;}
	.st11{fill:#FFFEFD;stroke:#F2994A;stroke-width:0.9132;stroke-linecap:round;stroke-linejoin:round;stroke-miterlimit:10;}
	.st12{fill:#FFFEFD;}
	.st13{fill:none;stroke:#F2994A;stroke-width:0.9132;stroke-linecap:round;stroke-linejoin:round;stroke-miterlimit:10;}
	.st14{opacity:0.38;clip-path:url(#XMLID_3_);}
	.st15{fill:none;stroke:#F2994A;}
	.st16{fill:#FF9999;}
	.st17{fill:#F2B945;}
	.st18{fill:#527FB3;}
	.st19{fill:#02C566;}
</style>
<g>
	<defs>
		<rect id="XMLID_1_" x="42" y="72" width="219" height="171"/>
	</defs>
	<clipPath id="XMLID_3_">
		<use xlink:href="#XMLID_1_"  style="overflow:visible;"/>
	</clipPath>
	<g class="st0">
		<defs>
			<rect id="SVGID_1_" x="25.7" y="69.3" width="287.7" height="224.4"/>
		</defs>
		<clipPath id="SVGID_2_">
			<use xlink:href="#SVGID_1_"  style="overflow:visible;"/>
		</clipPath>
		<g class="st1">
			<g>
				
					<image style="overflow:visible;" width="1151" height="844" xlink:href="AEF8C86EDB91A1D0.png"  transform="matrix(0.3044 0 0 0.3044 15.005 59.6382)">
				</image>
				<rect x="188.9" y="141.9" class="st2" width="44" height="39.8"/>
				<polygon class="st2" points="100.9,235.7 95.7,266.1 81,265 70,253 64.2,242 63.7,235.1 91.5,230.9 				"/>
			</g>
			<path class="st3" d="M56.8,166.9c0,0,10.3-28,11.6-28.3c1.3-0.3,2.6,0.3,2.6,0.3l20.8,23.4L56.8,166.9z"/>
			<line class="st3" x1="58.9" y1="162" x2="88" y2="158.2"/>
			<line class="st3" x1="60.8" y1="156.8" x2="84.1" y2="153.9"/>
			<line class="st3" x1="62.8" y1="152.1" x2="80.8" y2="149.9"/>
			<line class="st3" x1="64.2" y1="148" x2="77.7" y2="146.5"/>
			<line class="st3" x1="65.6" y1="144.2" x2="74.7" y2="143.2"/>
		</g>
		<g class="st1">
			<g>
				<path class="st2" d="M100.5,153.5l2.8-1.1l-0.4-3.1c0,0,3.6-0.1,3.8-2.5c0.2-2.3-0.1-4-0.1-4s0.1-1-2.2-1.3
					c-2.3-0.3-5.5-0.6-5.5-0.6s-2.1-3.7-3.5-3.6c-1.4,0.1-8,0.7-9.4,1.2c-1.3,0.6-2.1,2-2.2,2.3c-0.2,0.3-0.6,2.3-0.6,2.3
					s-1.1-1.8-3.1-1.4c-1,0-3.3,0.4-3.3,0.4s-1.3,0.8-1.6,1.9c-2.2,0.3-2.5,0.4-2.5,0.4s-2.6,0-2.8,0.8c-3.3,0.7-3.3,0.7-3.3,0.7
					l0.2,0.4l0.7,0l0.1,1l-0.8,0l0.2,0.8c0,0,1.9-0.3,2.4,0s0.9,0.8,0.9,0.8l5.2-0.8l0.9,6.8c0,0-0.5,1.4,0.7,2.5c0.2,1,0.2,1,0.2,1
					s-4.2,2.1-8.5,1.1c-1.8-0.3-2.3,0.5-2.3,1.2c0,0.8,0.3,2.4,0.3,2.4s-0.1,0.5,2,0.6c0.7-0.6,1.3-1,1.3-1s4.6,1.2,13.7-2.5
					c-0.1-0.3-0.1-0.3-0.1-0.3l2.5-1.1c0,0,2,7,2.4,7.4c0.4,0.4,0.8,1.6,0.8,1.6s1.1,1.4,3.5,1.4c4-1.4,8.4-4,8.3-6.4
					S100.5,153.5,100.5,153.5z"/>
				<path class="st4" d="M93,169.7C93,169.7,93,169.7,93,169.7c-2.5-0.1-3.7-1.5-3.7-1.6c0,0,0-0.1,0-0.1c-0.1-0.3-0.5-1.1-0.8-1.5
					c-0.4-0.4-1.8-5.3-2.4-7.2l-1.9,0.8l0,0c0,0.1,0,0.3-0.2,0.3c-8.4,3.4-12.9,2.7-13.8,2.5c-0.2,0.1-0.7,0.5-1.2,0.9
					c-0.1,0-0.1,0.1-0.2,0.1c0,0,0,0,0,0c-1.2,0-1.9-0.2-2.2-0.5c-0.1-0.1-0.1-0.2-0.1-0.3c0-0.2-0.3-1.7-0.3-2.4
					c0-0.5,0.1-0.9,0.5-1.2c0.5-0.4,1.2-0.5,2.1-0.3c3.6,0.8,7.2-0.6,8.1-0.9l-0.1-0.6c-1-1.1-0.8-2.4-0.7-2.7l-0.8-6.4l-4.9,0.7
					c-0.1,0-0.2,0-0.3-0.1c0,0-0.4-0.5-0.9-0.7c-0.2-0.1-1.3-0.1-2.2,0.1c-0.1,0-0.3-0.1-0.3-0.2l-0.2-0.8c0-0.1,0-0.2,0-0.3
					c0.1-0.1,0.1-0.1,0.2-0.1l0.4,0l0-0.4l-0.4,0c-0.1,0-0.2-0.1-0.3-0.2l-0.2-0.4c0-0.1-0.1-0.2,0-0.3c0-0.1,0.1-0.2,0.2-0.2
					l3.2-0.7c0.5-0.8,2.3-0.8,3-0.8c0.1,0,0.6-0.1,2.3-0.4c0.4-1.1,1.6-1.8,1.7-1.9c0,0,0.1,0,0.1,0c0.1,0,2.2-0.3,3.3-0.4
					c1.5-0.3,2.5,0.4,3,1c0.2-0.6,0.4-1.5,0.5-1.7c0.1-0.2,0.8-1.8,2.4-2.5c1.5-0.6,8.5-1.2,9.5-1.3c1.4-0.1,3.2,2.8,3.7,3.6
					c0.7,0.1,3.3,0.3,5.4,0.5c2.4,0.3,2.5,1.4,2.5,1.6c0,0.2,0.2,1.8,0.1,4c-0.1,2.2-2.8,2.6-3.7,2.7l0.3,2.7c0,0.1-0.1,0.3-0.2,0.3
					l-2.6,1c0.1,1.2,0.6,7.1,0.7,9.2c0.1,2.6-4.5,5.3-8.5,6.7C93.1,169.7,93,169.7,93,169.7z M89.8,167.7C90,167.9,91,169,93,169
					c4.1-1.5,8.1-3.9,8-6.1c-0.1-2.4-0.7-9.3-0.8-9.4c0-0.1,0.1-0.3,0.2-0.3l2.6-1l-0.3-2.8c0-0.1,0-0.2,0.1-0.2s0.1-0.1,0.2-0.1
					c0,0,3.3-0.2,3.5-2.2c0.2-2.3-0.1-3.9-0.1-4c0,0,0,0,0-0.1l0,0c0,0,0-0.7-2-1c-2.3-0.3-5.5-0.5-5.5-0.6c-0.1,0-0.2-0.1-0.2-0.2
					c-0.8-1.4-2.3-3.5-3.2-3.4c-1.8,0.1-8.1,0.7-9.3,1.2c-1.3,0.6-2,2.1-2.1,2.2c-0.1,0.2-0.4,1.5-0.6,2.2c0,0.1-0.1,0.2-0.3,0.2
					c-0.1,0-0.2,0-0.3-0.1c0-0.1-1-1.6-2.8-1.2c0,0,0,0-0.1,0c-0.9,0-2.8,0.3-3.2,0.3c-0.2,0.1-1.2,0.8-1.4,1.7
					c0,0.1-0.1,0.2-0.3,0.2c-2.1,0.3-2.5,0.4-2.5,0.4c0,0,0,0-0.1,0c-1.1,0-2.4,0.2-2.5,0.6c0,0.1-0.1,0.2-0.2,0.2l-2.4,0.5
					c0.1,0,0.2,0.1,0.2,0.2l0.1,1c0,0.1,0,0.2-0.1,0.2c-0.1,0.1-0.1,0.1-0.2,0.1l-0.4,0l0,0.1c0.7-0.1,1.9-0.2,2.4,0
					c0.4,0.2,0.7,0.6,0.9,0.7l5.1-0.7c0.1,0,0.2,0,0.2,0.1c0.1,0,0.1,0.1,0.1,0.2l0.9,6.8c0,0,0,0.1,0,0.1c0,0-0.4,1.2,0.6,2.2
					c0,0,0.1,0.1,0.1,0.2l0.2,1c0,0.1,0,0.3-0.2,0.3c-0.2,0.1-4.4,2.1-8.7,1.1c-0.7-0.1-1.3-0.1-1.6,0.2c-0.2,0.2-0.3,0.5-0.3,0.7
					c0,0.7,0.3,2.4,0.3,2.4c0,0,0,0,0,0c0.1,0.1,0.3,0.3,1.6,0.3c0.7-0.6,1.3-0.9,1.3-0.9c0.1,0,0.2-0.1,0.2,0c0,0,4.5,1.1,13.3-2.3
					l0,0c0-0.1,0-0.3,0.2-0.3l2.5-1.1c0.1,0,0.2,0,0.3,0c0.1,0,0.1,0.1,0.2,0.2c0.9,3.3,2.1,7,2.4,7.3
					C89.3,166.6,89.7,167.5,89.8,167.7z M67.2,163.2C67.2,163.2,67.2,163.2,67.2,163.2C67.2,163.2,67.2,163.2,67.2,163.2z"/>
			</g>
			<g>
				<path class="st4" d="M92.6,160.1C92.6,160.1,92.6,160.1,92.6,160.1c-0.3,0-0.9,0-2.1-6.2c0-0.1,0-0.2,0.1-0.3
					c0.1-0.1,0.2-0.1,0.3-0.1c0,0,0.8,0.1,2.4-0.8c1.2-3,0.2-6.4-0.7-7.4c-0.7-0.8-3.1-1.2-3.9-1.3c-0.1,0-0.3-0.1-0.3-0.3
					c0,0-0.1-0.7-0.5-2.6c-0.1-0.4,0-0.7,0.2-1c1.3-1.5,6.8-1.4,6.8-1.4c1.4,0.1,2.8,2.6,3,2.9c0,0,0,0.1,0,0.1
					c0.1,0.5,1.3,12.6,1.2,15c0,1.1-1.1,2.1-3.1,2.7C94.5,159.9,93,160.1,92.6,160.1z M91.1,154.1c0.5,2.4,1.2,5,1.5,5.4
					c0.9,0,5.7-0.7,5.7-2.7c0.1-2.3-1.1-13.9-1.2-14.8c-0.6-1-1.7-2.5-2.4-2.6c-1.4-0.1-5.5,0.1-6.3,1.2c-0.1,0.2-0.2,0.3-0.1,0.5
					c0.3,1.3,0.5,2.1,0.5,2.4c0.8,0.1,3.3,0.5,4.1,1.5c1,1.2,2.1,4.9,0.8,8.2c0,0.1-0.1,0.1-0.1,0.1C92.4,153.9,91.6,154,91.1,154.1
					z"/>
			</g>
			<g>
				<path class="st4" d="M91.8,169.4c0,0-0.1,0-0.1,0c-1.2-0.4-3.4-10.8-4.2-15.2c0-0.2,0.1-0.3,0.2-0.4c0.2,0,0.3,0.1,0.4,0.2
					c1.3,6.9,3.2,14.3,3.9,14.8c0.2,0.1,0.2,0.2,0.2,0.4C92,169.4,91.9,169.4,91.8,169.4z"/>
			</g>
			<g>
				<path class="st4" d="M85.9,154.6c-1.3,0-1.7-0.2-1.8-0.3c-0.1,0-0.1-0.1-0.1-0.2c-0.3-1.7-1.1-8.8-1.1-9.1c0-0.1,0-0.2,0.1-0.3
					l2.1-1.5c0.1,0,0.1-0.1,0.2-0.1l3.4,0.2c0.2,0,0.3,0.2,0.3,0.3c0,0.2-0.2,0.3-0.3,0.3l-3.3-0.2l-1.8,1.3c0.1,1.1,0.8,7,1.1,8.7
					c0.7,0.3,3.6,0,6.2-0.4c0.2,0,0.3,0.1,0.3,0.3c0,0.2-0.1,0.3-0.3,0.3C88.4,154.4,86.9,154.6,85.9,154.6z"/>
			</g>
			<g>
				<path class="st4" d="M79.7,162c-1.8,0-2.2-1.6-2.5-2.9c0-0.2-0.1-0.4-0.1-0.6c-0.2-0.7-0.1-1.1,0.1-1.5c0.4-0.5,1.2-0.5,1.7-0.5
					c0,0,0,0,0,0c0.6,0,4.2-1.4,6.3-2.4c0.2-0.1,0.3,0,0.4,0.2c0.1,0.2,0,0.3-0.2,0.4c-0.9,0.4-5.6,2.4-6.5,2.4c0,0,0,0,0,0
					c-0.5,0-1,0-1.2,0.2c-0.2,0.2-0.1,0.6,0,0.9c0.1,0.2,0.1,0.4,0.1,0.6c0.4,1.6,0.7,2.6,2.2,2.4c0.2,0,0.3,0.1,0.3,0.3
					c0,0.2-0.1,0.3-0.3,0.3C79.9,162,79.8,162,79.7,162z"/>
			</g>
			<g>
				
					<ellipse transform="matrix(0.9949 -0.1005 0.1005 0.9949 -14.2073 8.9027)" class="st2" cx="81.2" cy="145.4" rx="2.5" ry="3.3"/>
				<path class="st4" d="M81.4,149c-0.7,0-1.3-0.3-1.9-0.9c-0.6-0.6-0.9-1.5-1-2.4c-0.2-2,0.9-3.7,2.4-3.9c0.8-0.1,1.5,0.2,2.1,0.9
					c0.6,0.6,0.9,1.5,1,2.4c0.1,0.9-0.1,1.9-0.5,2.6c-0.5,0.8-1.1,1.2-1.9,1.3C81.5,149,81.4,149,81.4,149z M81.1,142.4
					c-0.1,0-0.1,0-0.2,0c-1.2,0.1-2,1.6-1.9,3.2c0.1,0.8,0.4,1.6,0.9,2.1c0.5,0.5,1,0.8,1.6,0.7c0.6-0.1,1.1-0.4,1.4-1
					c0.4-0.6,0.5-1.4,0.4-2.2c-0.1-0.8-0.4-1.6-0.9-2.1C82.1,142.6,81.6,142.4,81.1,142.4z"/>
			</g>
			<g>
				<path class="st4" d="M79.6,156.9c-0.2,0-0.3-0.1-0.3-0.3c0,0,0-0.4,0-1.5c-0.9-1-0.5-2.2-0.3-2.6c-0.1-0.5-0.7-2.6-1.2-4
					c-1.2-1.1-1.3-2.1-1.4-3.2c0-0.1,0-0.2,0-0.3c-0.1-1.4,2-3.1,2.3-3.3c0.1-0.1,0.3-0.1,0.4,0.1c0.1,0.1,0.1,0.3-0.1,0.4
					c-0.6,0.5-2.1,1.8-2,2.7c0,0.1,0,0.2,0,0.3c0.1,1.1,0.2,1.9,1.2,2.8c0,0,0.1,0.1,0.1,0.1c0.6,1.6,1.3,4.2,1.3,4.2
					c0,0.1,0,0.1,0,0.2c0,0.1-0.6,1.3,0.2,2.1c0.1,0.1,0.1,0.2,0.1,0.2c-0.1,1.1-0.1,1.5-0.1,1.5C79.9,156.7,79.8,156.9,79.6,156.9
					C79.6,156.9,79.6,156.9,79.6,156.9z"/>
			</g>
		</g>
		<g id="_x31_4" class="st1">
			<path class="st5" d="M138.7,143.3c2.2-2.2,3.3-4.8,3.3-8c-0.1-1.5-0.5-2.9-1-4.3c-2.8-3-6-4.8-8.4-4c-6.7,2.2-10.4,7-10.4,7
				s5.1,6.7,11.7,11.6C135.7,145.3,137.5,144.4,138.7,143.3z"/>
			<path class="st5" d="M122.2,134.1l12.5,1.8c0,0,7.1,5,9.8,11.6c6.5-1.5,1.5-14.6,1.5-14.6s-11.6-6.4-12.1-6.2
				C133.5,127.1,119.9,126.3,122.2,134.1z"/>
			<path class="st6" d="M141,131.1c0.6,1.3,0.9,2.7,1,4.3c0,3.1-1.1,5.8-3.3,8c-1.2,1.1-3,2-4.8,2.4c3.6,2.6,7.6,4.8,11.6,5
				C149.8,145.7,146,136.5,141,131.1z"/>
			<path class="st7" d="M122.9,128.4c-1.8,0.8-3.2,1.4-3.2,1.4s-3.1,1.3-0.2,4.1c1.6,0.6,3.9,0.1,5.8-0.7c1.8-0.7,3.4-1.7,4-2
				c-0.5-1.7-1.1-3.3-1.3-5C126.4,126.8,124.5,127.7,122.9,128.4z"/>
			<g>
				<path class="st8" d="M142.6,169.4L142.6,169.4c-1.6,1.1-3.9,0.7-5-1l-29.2-43.4c-1.1-1.6-0.7-3.9,1-5l0,0c1.6-1.1,3.9-0.7,5,1
					l29.2,43.4C144.7,166.1,144.3,168.3,142.6,169.4z"/>
				<path class="st9" d="M108.9,124.4l29.1,43.3c0.9,1.3,2.5,1.7,3.9,1.2l-32.6-48.6C108.2,121.4,108,123.1,108.9,124.4z"/>
				<path class="st10" d="M114.8,120.4c-1-1.5-3-1.9-4.5-0.9l-0.6,0.4c-0.2,0.1-0.3,0.2-0.5,0.4l32.6,48.6c0.2-0.1,0.4-0.2,0.6-0.3
					l0.6-0.4c1.5-1,1.9-3,0.9-4.5L114.8,120.4z"/>
			</g>
			<path class="st11" d="M142.4,147.6c-4.4,1.9-9.6-4.8-12.4-7.3c-1.6-1.4-3.5-3.3-5.8-2.3c-1.8,0.9-3.2,3.3-1.6,5
				c1.2,1.3,8,6.5,12.5,12c0,0,0,0,0,0c0,0,0,0,0.1,0.1c0,0,0.1,0.1,0.1,0.1c0.8,1,1.6,2.1,2.2,3.1c3.9,6.6,13.5,9.6,15.5,10.3
				c2,0.7,13.8,21.4,13.8,21.4l0.7-0.5l15.4-10.9c0,0-15.8-15.7-21.6-22.7c-3.4-5.5-5.7-14.9-8.2-18.5c-3.5-2.4-13-10.4-13-10.4
				s-3.8-0.8-11-1.6c-0.4,0.2-0.8,0.4-1.3,0.6l-7,3.1l5.4,8.3"/>
			<path class="st11" d="M122.9,142.1l2,2c0.9,0.9,2.2,1,3.2,0.3c1.2-0.9,1.2-2.6,0.2-3.6l-2.1-2.1c-0.4-0.4-1.1-0.4-1.6,0l-1.8,1.8
				C122.5,141,122.5,141.7,122.9,142.1z"/>
			<path class="st12" d="M130.1,139.1c0,0,7.9,10.5,11.9,8.1S130.1,139.1,130.1,139.1z"/>
			<polyline class="st11" points="127.7,137.8 131.2,135.5 139.2,137.2 146.4,144 			"/>
			<polyline class="st13" points="124.7,134.3 131.8,130.3 139.8,131.9 147,138.8 			"/>
		</g>
	</g>
	<g class="st14">
		
			<image style="overflow:visible;" width="1677" height="1334" xlink:href="AEF8C86EDB91A1D1.png"  transform="matrix(0.24 0 0 0.24 -45.6 21.6)">
		</image>
	</g>
</g>
<rect x="29.5" y="59.5" class="st15" width="244" height="196"/>
<circle class="st16" cx="100" cy="30" r="9"/>
<ellipse class="st17" cx="274" cy="87" rx="9" ry="8"/>
<ellipse class="st18" cx="249.5" cy="274" rx="3.5" ry="3"/>
<circle class="st19" cx="17" cy="180" r="8"/>
</svg>
