<?xml version="1.0" encoding="utf-8"?>
<!-- Generator: Adobe Illustrator 25.0.1, SVG Export Plug-In . SVG Version: 6.00 Build 0)  -->
<svg version="1.1" id="Layer_1" xmlns="http://www.w3.org/2000/svg" xmlns:xlink="http://www.w3.org/1999/xlink" x="0px" y="0px"
	 viewBox="0 0 171.1 77.6" style="enable-background:new 0 0 171.1 77.6;" xml:space="preserve">
<style type="text/css">
	.st0{fill:#FFFFFF;stroke:#F2994A;}
</style>
<path d="M4,23.9c0,1.4,1.1,2.5,2.5,2.5H13c7.3,0,12.3-5,12.3-11.6v-0.1c0-6.5-5-11.5-12.3-11.5H6.5C5.1,3.3,4,4.4,4,5.8V23.9z
	 M9.1,21.8V7.9H13c4.2,0,7,2.9,7,7v0.1c0,4.1-2.8,6.9-7,6.9H9.1z M29.8,24.1c0,1.4,1.1,2.5,2.5,2.5c1.4,0,2.5-1.1,2.5-2.5v-5h4.1
	l4.9,6.3c0.6,0.8,1.4,1.3,2.5,1.3c1.2,0,2.4-0.9,2.4-2.3c0-0.8-0.3-1.3-0.8-1.9L44.4,18c2.8-1.2,4.6-3.4,4.6-7v-0.1
	c0-2.2-0.7-4-2-5.3c-1.5-1.5-3.8-2.3-6.7-2.3h-8c-1.4,0-2.5,1.1-2.5,2.5V24.1z M34.9,14.5V7.9h5c2.5,0,4,1.1,4,3.3v0.1
	c0,1.9-1.4,3.3-3.9,3.3H34.9z M53.9,24.1c0,1.4,1.1,2.5,2.5,2.5c1.4,0,2.5-1.1,2.5-2.5V5.6c0-1.4-1.1-2.5-2.5-2.5
	c-1.4,0-2.5,1.1-2.5,2.5V24.1z M73.8,26.8h0.3c1.4,0,2.3-0.8,2.9-2l7.6-18.1c0.1-0.3,0.3-0.7,0.3-1.1c0-1.4-1.1-2.4-2.5-2.4
	c-1.2,0-2.1,0.8-2.4,1.6L74,19.8L68.2,4.9c-0.4-1-1.3-1.8-2.6-1.8c-1.4,0-2.5,1.1-2.5,2.5c0,0.4,0.1,0.8,0.3,1.2l7.5,17.9
	C71.4,26,72.4,26.8,73.8,26.8z M91.2,26.4h13c1.3,0,2.3-1,2.3-2.2s-1-2.3-2.3-2.3H93.7V17h8.8c1.3,0,2.3-1,2.3-2.2s-1-2.3-2.3-2.3
	h-8.8V7.8H104c1.3,0,2.3-1,2.3-2.2s-1-2.3-2.3-2.3H91.2c-1.4,0-2.5,1.1-2.5,2.5v18C88.7,25.3,89.8,26.4,91.2,26.4z M120.7,24.1
	c0,1.4,1.1,2.5,2.5,2.5c1.4,0,2.5-1.1,2.5-2.5V12.6l4.4,6.8c0.5,0.8,1.2,1.3,2.1,1.3s1.6-0.5,2.1-1.3l4.5-6.9v11.5
	c0,1.4,1.1,2.5,2.5,2.5c1.4,0,2.5-1.1,2.5-2.5V5.7c0-1.4-1.1-2.5-2.5-2.5h-0.6c-1,0-1.7,0.4-2.3,1.3l-6.2,10l-6.1-10
	c-0.5-0.8-1.2-1.3-2.3-1.3h-0.6c-1.4,0-2.5,1.1-2.5,2.5V24.1z M151.9,26.4h13c1.3,0,2.3-1,2.3-2.2s-1-2.3-2.3-2.3h-10.5V17h8.8
	c1.3,0,2.3-1,2.3-2.2s-1-2.3-2.3-2.3h-8.8V7.8h10.3c1.3,0,2.3-1,2.3-2.2s-1-2.3-2.3-2.3h-12.8c-1.4,0-2.5,1.1-2.5,2.5v18
	C149.3,25.3,150.4,26.4,151.9,26.4z"/>
<path class="st0" d="M74.5,60.5L74.5,60.5L74.5,60.5c0.8-1.8-0.4-3.9-2.3-3.9H60c-2.1,0-3.3,2.1-2.4,3.9c1.4,2.9,4.7,4.9,8.5,4.9
	C69.7,65.4,73,63.4,74.5,60.5z M47.7,54.9c0-9.9,8.1-18,18-18c9.9,0,18,8,18,18c0,9.9-8.1,18-18,18S47.7,64.8,47.7,54.9z M56.8,46.7
	c-0.7,0-1.3,0.5-1.7,1.1c-0.4,0.6-0.6,1.5-0.6,2.4c0,0.9,0.2,1.8,0.6,2.4c0.4,0.6,0.9,1.1,1.7,1.1c0.7,0,1.3-0.5,1.6-1.1
	c0.4-0.6,0.6-1.5,0.6-2.4c0-0.9-0.2-1.8-0.6-2.4C58.2,47.2,57.6,46.7,56.8,46.7z M72.6,50.3c0,0.9,0.2,1.8,0.6,2.4
	c0.4,0.6,0.9,1.1,1.7,1.1c0.8,0,1.4-0.5,1.7-1.1c0.4-0.6,0.6-1.5,0.5-2.4c0-0.9-0.2-1.7-0.6-2.4c-0.4-0.6-0.9-1.1-1.7-1.1
	c-0.7,0-1.3,0.5-1.7,1.1C72.8,48.5,72.6,49.4,72.6,50.3z"/>
<path d="M14,62.1c0,1.4,1.1,2.5,2.5,2.5s2.5-1.1,2.5-2.5v-6.9h9.4v6.9c0,1.4,1.1,2.5,2.5,2.5s2.5-1.1,2.5-2.5V43.6
	c0-1.4-1.1-2.5-2.5-2.5s-2.5,1.1-2.5,2.5v6.8h-9.4v-6.8c0-1.4-1.1-2.5-2.5-2.5S14,42.2,14,43.6V62.1z"/>
<path d="M141.5,64.4h13c1.3,0,2.3-1,2.3-2.2c0-1.3-1-2.3-2.3-2.3H144V55h8.8c1.3,0,2.3-1,2.3-2.2c0-1.3-1-2.3-2.3-2.3H144v-4.7h10.3
	c1.3,0,2.3-1,2.3-2.2c0-1.3-1-2.3-2.3-2.3h-12.8c-1.4,0-2.5,1.1-2.5,2.5v18C139,63.3,140.1,64.4,141.5,64.4z"/>
<path d="M99,61.1c0,1.4,1.1,2.5,2.5,2.5s2.5-1.1,2.5-2.5V49.6l4.4,6.8c0.5,0.8,1.2,1.3,2.1,1.3c0.9,0,1.6-0.5,2.1-1.3l4.5-6.9v11.5
	c0,1.4,1.1,2.5,2.5,2.5c1.4,0,2.5-1.1,2.5-2.5V42.7c0-1.4-1.1-2.5-2.5-2.5H119c-1,0-1.7,0.4-2.3,1.3l-6.2,10l-6.1-10
	c-0.5-0.8-1.2-1.3-2.3-1.3h-0.6c-1.4,0-2.5,1.1-2.5,2.5V61.1z"/>
</svg>
