<?xml version="1.0" encoding="utf-8"?>
<!-- Generator: Adobe Illustrator 25.0.1, SVG Export Plug-In . SVG Version: 6.00 Build 0)  -->
<svg version="1.1" id="Layer_1" xmlns="http://www.w3.org/2000/svg" xmlns:xlink="http://www.w3.org/1999/xlink" x="0px" y="0px"
	 viewBox="0 0 94.5 94.5" style="enable-background:new 0 0 94.5 94.5;" xml:space="preserve">
<style type="text/css">
	.st0{fill:#F2994A;}
	.st1{fill:#FFFFFF;}
</style>
<path class="st0" d="M4.4,36.7L36.7,4.4c5.9-5.9,15.4-5.9,21.2,0l32.3,32.3c5.9,5.9,5.9,15.4,0,21.2L57.9,90.1
	C52,96,42.5,96,36.7,90.1L4.4,57.9C-1.5,52-1.5,42.5,4.4,36.7z"/>
<path class="st1" d="M47.3,20.3c-13.5,0-24.5,11-24.5,24.5s11,24.5,24.5,24.5c13.1,0,23.8-10.2,24.5-23.1c0-0.4,0.1-0.9,0.1-1.3
	C71.7,31.2,60.7,20.3,47.3,20.3z M47.1,62.9c-10.1,0-18.3-8.2-18.3-18.2S37,26.5,47.1,26.5c10.1,0,18.3,8.2,18.3,18.2
	C65.3,54.8,57.2,62.9,47.1,62.9z"/>
<path class="st1" d="M68.4,39.4H24.3v6.2h44.1V39.4z"/>
<path class="st1" d="M30.4,45.3c0,0,4.5,1.4,6.5,3.2c2,1.8,5.5,4.8,9.6,4.7v-5.3c0,0-2,0-4.5-4.1C36.4,43.6,30.4,45.3,30.4,45.3z"/>
<path class="st1" d="M62.7,45.3c0,0-4.5,1.4-6.5,3.2c-2,1.8-5.5,4.8-9.6,4.7v-5.3c0,0,2,0,4.5-4.1C56.7,43.6,62.7,45.3,62.7,45.3z"
	/>
<path class="st1" d="M68.6,69.3c-1.7,0-3.2-1.4-3.2-3.2V44.4h6.3v21.8C71.7,67.8,70.4,69.3,68.6,69.3z"/>
</svg>
