<?xml version="1.0" encoding="utf-8"?>
<!-- Generator: Adobe Illustrator 25.0.1, SVG Export Plug-In . SVG Version: 6.00 Build 0)  -->
<svg version="1.1" id="Layer_1" xmlns="http://www.w3.org/2000/svg" xmlns:xlink="http://www.w3.org/1999/xlink" x="0px" y="0px"
	 viewBox="0 0 147.8 46" style="enable-background:new 0 0 147.8 46;" xml:space="preserve">
<style type="text/css">
	.st0{fill:#FFFFFF;stroke:#F2994A;}
	.st1{fill:#F2994A;}
	.st2{fill:#FFFFFF;}
</style>
<path d="M57.2,18.8c0,0.8,0.6,1.4,1.4,1.4h3.5c4,0,6.7-2.8,6.7-6.3v0c0-3.5-2.7-6.3-6.7-6.3h-3.5c-0.8,0-1.4,0.6-1.4,1.4V18.8z
	 M60,17.6V10h2.1c2.3,0,3.8,1.6,3.8,3.8v0c0,2.2-1.5,3.8-3.8,3.8H60z M71.3,18.9c0,0.8,0.6,1.4,1.4,1.4c0.8,0,1.4-0.6,1.4-1.4v-2.8
	h2.2l2.7,3.4c0.3,0.4,0.7,0.7,1.4,0.7c0.7,0,1.3-0.5,1.3-1.3c0-0.4-0.2-0.7-0.4-1.1l-1.9-2.3c1.5-0.6,2.5-1.9,2.5-3.8v0
	c0-1.2-0.4-2.2-1.1-2.9C79.9,8,78.6,7.5,77,7.5h-4.4c-0.8,0-1.4,0.6-1.4,1.4V18.9z M74,13.7V10h2.8c1.3,0,2.2,0.6,2.2,1.8v0
	c0,1.1-0.8,1.8-2.1,1.8H74z M84.4,18.9c0,0.8,0.6,1.4,1.4,1.4s1.4-0.6,1.4-1.4v-10c0-0.8-0.6-1.4-1.4-1.4S84.4,8,84.4,8.8V18.9z
	 M95.2,20.3h0.2c0.8,0,1.3-0.4,1.6-1.1l4.1-9.9c0.1-0.2,0.1-0.4,0.1-0.6c0-0.8-0.6-1.3-1.4-1.3c-0.7,0-1.2,0.4-1.3,0.9l-3.2,8.2
	l-3.2-8.2c-0.2-0.6-0.7-1-1.4-1c-0.8,0-1.4,0.6-1.4,1.4c0,0.2,0.1,0.4,0.2,0.7l4.1,9.8C94,19.9,94.5,20.3,95.2,20.3z M104.8,20.1
	h7.1c0.7,0,1.2-0.5,1.2-1.2s-0.6-1.2-1.2-1.2h-5.7V15h4.8c0.7,0,1.2-0.5,1.2-1.2s-0.6-1.2-1.2-1.2h-4.8V10h5.6
	c0.7,0,1.2-0.5,1.2-1.2s-0.6-1.2-1.2-1.2h-7c-0.8,0-1.4,0.6-1.4,1.4v9.8C103.4,19.5,104,20.1,104.8,20.1z M120.8,18.9
	c0,0.8,0.6,1.4,1.3,1.4c0.8,0,1.4-0.6,1.4-1.4v-6.3l2.4,3.7c0.3,0.4,0.6,0.7,1.2,0.7s0.9-0.3,1.2-0.7l2.4-3.7v6.3
	c0,0.8,0.6,1.4,1.4,1.4c0.8,0,1.4-0.6,1.4-1.4v-10c0-0.8-0.6-1.4-1.4-1.4h-0.3c-0.6,0-1,0.2-1.2,0.7l-3.4,5.5l-3.3-5.5
	c-0.3-0.4-0.7-0.7-1.3-0.7h-0.3c-0.8,0-1.4,0.6-1.4,1.4V18.9z M137.8,20.1h7.1c0.7,0,1.2-0.5,1.2-1.2s-0.6-1.2-1.2-1.2h-5.7V15h4.8
	c0.7,0,1.2-0.5,1.2-1.2s-0.6-1.2-1.2-1.2h-4.8V10h5.6c0.7,0,1.2-0.5,1.2-1.2s-0.6-1.2-1.2-1.2h-7c-0.8,0-1.4,0.6-1.4,1.4v9.8
	C136.5,19.5,137.1,20.1,137.8,20.1z"/>
<path class="st0" d="M82.4,36.3L82.4,36.3L82.4,36.3c0.4-1-0.2-2.2-1.3-2.2h-5.6c-1.1,0-1.9,1.2-1.4,2.2c0.7,1.4,2.3,2.4,4.1,2.4
	C80.1,38.7,81.7,37.8,82.4,36.3z M70.2,33.6c0-4.4,3.6-8,8-8c4.4,0,8,3.6,8,8c0,4.4-3.6,8-8,8C73.8,41.6,70.2,38,70.2,33.6z
	 M74.1,29.6c-0.5,0-0.8,0.3-1,0.6c-0.2,0.3-0.3,0.8-0.3,1.2c0,0.5,0.1,0.9,0.3,1.2c0.2,0.3,0.5,0.7,1,0.6c0.5,0,0.8-0.3,1-0.6
	c0.2-0.3,0.3-0.8,0.3-1.2c0-0.5-0.1-0.9-0.3-1.2C74.9,29.9,74.6,29.6,74.1,29.6z M81,31.5c0,0.5,0.1,0.9,0.3,1.2
	c0.2,0.3,0.5,0.7,1,0.7c0.5,0,0.8-0.3,1-0.7c0.2-0.3,0.3-0.8,0.3-1.2c0-0.4-0.1-0.9-0.3-1.2c-0.2-0.3-0.5-0.7-1-0.7
	c-0.5,0-0.8,0.3-1,0.6C81.2,30.6,81,31.1,81,31.5z"/>
<path class="st1" d="M3.6,17.7L18.2,3.1c2.7-2.7,7.2-2.7,9.9,0l14.6,14.6c2.7,2.7,2.7,7.2,0,9.9L28.1,42.2c-2.7,2.7-7.2,2.7-9.9,0
	L3.6,27.6C0.9,24.9,0.9,20.4,3.6,17.7z"/>
<path class="st2" d="M23.2,10.3c-6.2,0-11.2,5-11.2,11.2c0,6.2,5,11.2,11.2,11.2c6,0,10.9-4.7,11.2-10.6c0-0.2,0-0.4,0-0.6
	C34.4,15.3,29.3,10.3,23.2,10.3z M23.1,29.8c-4.6,0-8.4-3.7-8.4-8.4c0-4.6,3.8-8.3,8.4-8.3c4.6,0,8.4,3.7,8.4,8.4
	C31.5,26.1,27.7,29.8,23.1,29.8z"/>
<path class="st2" d="M32.8,19H12.7v2.9h20.2V19z"/>
<path class="st2" d="M15.5,21.7c0,0,2.1,0.7,3,1.5c0.9,0.8,2.5,2.2,4.4,2.1v-2.4c0,0-0.9,0-2.1-1.9C18.2,21,15.5,21.7,15.5,21.7z"/>
<path class="st2" d="M30.3,21.7c0,0-2.1,0.7-3,1.5c-0.9,0.8-2.5,2.2-4.4,2.1v-2.4c0,0,0.9,0,2.1-1.9C27.5,21,30.3,21.7,30.3,21.7z"
	/>
<path class="st2" d="M32.9,32.7c-0.8,0-1.4-0.6-1.4-1.4v-10h2.9v10C34.4,32.1,33.8,32.7,32.9,32.7z"/>
<path d="M55,39c0,0.7,0.5,1.2,1.2,1.2s1.2-0.5,1.2-1.2v-3.4H62V39c0,0.7,0.5,1.2,1.2,1.2c0.7,0,1.2-0.5,1.2-1.2v-8.9
	c0-0.7-0.5-1.2-1.2-1.2c-0.7,0-1.2,0.5-1.2,1.2v3.3h-4.5v-3.3c0-0.7-0.5-1.2-1.2-1.2S55,29.4,55,30.1V39z"/>
<path d="M112.2,40.1h6.3c0.6,0,1.1-0.5,1.1-1.1c0-0.6-0.5-1.1-1.1-1.1h-5.1v-2.4h4.3c0.6,0,1.1-0.5,1.1-1.1s-0.5-1.1-1.1-1.1h-4.3
	v-2.3h5c0.6,0,1.1-0.5,1.1-1.1c0-0.6-0.5-1.1-1.1-1.1h-6.2c-0.7,0-1.2,0.5-1.2,1.2v8.7C111,39.6,111.6,40.1,112.2,40.1z"/>
<path d="M93,39c0,0.7,0.5,1.2,1.2,1.2c0.7,0,1.2-0.5,1.2-1.2v-5.6l2.1,3.3c0.3,0.4,0.6,0.6,1,0.6c0.4,0,0.8-0.2,1-0.6l2.2-3.3V39
	c0,0.7,0.5,1.2,1.2,1.2c0.7,0,1.2-0.5,1.2-1.2v-8.9c0-0.7-0.5-1.2-1.2-1.2h-0.3c-0.5,0-0.8,0.2-1.1,0.6l-3,4.9l-3-4.8
	c-0.2-0.4-0.6-0.6-1.1-0.6h-0.3c-0.7,0-1.2,0.5-1.2,1.2V39z"/>
</svg>
